HIERARCHY
ROOT hip
{
  OFFSET 0 0 0
  CHANNELS 6 Xposition Yposition Zposition Zrotation Yrotation Xrotation
  JOINT abdomen
  {
    OFFSET 0 20.6881 -0.73152
    CHANNELS 3 Zrotation Xrotation Yrotation
    JOINT chest
    {
      OFFSET 0 11.7043 -0.48768
      CHANNELS 3 Zrotation Xrotation Yrotation
      JOINT neck
      {
        OFFSET 0 22.1894 -2.19456
        CHANNELS 3 Zrotation Xrotation Yrotation
        JOINT head
        {
          OFFSET -0.24384 7.07133 1.2192
          CHANNELS 3 Zrotation Xrotation Yrotation
          JOINT leftEye
          {
            OFFSET 4.14528 8.04674 8.04672
            CHANNELS 3 Zrotation Xrotation Yrotation
            End Site
            {
              OFFSET 1 0 0
            }
          }
          JOINT rightEye
          {
            OFFSET -3.6576 8.04674 8.04672
            CHANNELS 3 Zrotation Xrotation Yrotation
            End Site
            {
              OFFSET 1 0 0
            }
          }
        }
      }
      JOINT rCollar
      {
        OFFSET -2.68224 19.2634 -4.8768
        CHANNELS 3 Zrotation Xrotation Yrotation
        JOINT rShldr
        {
          OFFSET -8.77824 -1.95073 1.46304
          CHANNELS 3 Zrotation Xrotation Yrotation
          JOINT rForeArm
          {
            OFFSET -28.1742 -1.7115 0.48768
            CHANNELS 3 Zrotation Xrotation Yrotation
            JOINT rHand
            {
              OFFSET -22.5879 0.773209 7.07136
              CHANNELS 3 Zrotation Xrotation Yrotation
              JOINT rThumb1
              {
                OFFSET -1.2192 -0.487915 3.41376
                CHANNELS 3 Zrotation Xrotation Yrotation
                JOINT rThumb2
                {
                  OFFSET -3.37035 -0.52449 3.41376
                  CHANNELS 3 Zrotation Xrotation Yrotation
                  End Site
                  {
                    OFFSET -1.78271 -1.18214 1.43049
                  }
                }
              }
              JOINT rIndex1
              {
                OFFSET -7.75947 0.938293 5.60832
                CHANNELS 3 Zrotation Xrotation Yrotation
                JOINT rIndex2
                {
                  OFFSET -2.54057 -0.884171 1.56538
                  CHANNELS 3 Zrotation Xrotation Yrotation
                  End Site
                  {
                    OFFSET -1.62519 -0.234802 1.16502
                  }
                }
              }
              JOINT rMid1
              {
                OFFSET -8.24714 1.18213 3.41376
                CHANNELS 3 Zrotation Xrotation Yrotation
                JOINT rMid2
                {
                  OFFSET -3.10165 -0.590103 1.0647
                  CHANNELS 3 Zrotation Xrotation Yrotation
                  End Site
                  {
                    OFFSET -2.48547 -0.328903 0.83742
                  }
                }
              }
              JOINT rRing1
              {
                OFFSET -8.82822 0.546677 1.51678
                CHANNELS 3 Zrotation Xrotation Yrotation
                JOINT rRing2
                {
                  OFFSET -2.60934 -0.819778 -0.0198488
                  CHANNELS 3 Zrotation Xrotation Yrotation
                  End Site
                  {
                    OFFSET -2.33842 -0.294052 0.168128
                  }
                }
              }
              JOINT rPinky1
              {
                OFFSET -8.27202 -0.0477905 -0.4584
                CHANNELS 3 Zrotation Xrotation Yrotation
                JOINT rPinky2
                {
                  OFFSET -1.82734 -0.647385 -0.700984
                  CHANNELS 3 Zrotation Xrotation Yrotation
                  End Site
                  {
                    OFFSET -1.69225 -0.51767 -0.607171
                  }
                }
              }
            }
          }
        }
      }
      JOINT lCollar
      {
        OFFSET 2.68224 19.2634 -4.8768
        CHANNELS 3 Zrotation Xrotation Yrotation
        JOINT lShldr
        {
          OFFSET 8.77824 -1.95073 1.46304
          CHANNELS 3 Zrotation Xrotation Yrotation
          JOINT lForeArm
          {
            OFFSET 28.1742 -1.7115 0.48768
            CHANNELS 3 Zrotation Xrotation Yrotation
            JOINT lHand
            {
              OFFSET 22.5879 0.773209 7.07136
              CHANNELS 3 Zrotation Xrotation Yrotation
              JOINT lThumb1
              {
                OFFSET 1.2192 -0.487915 3.41376
                CHANNELS 3 Zrotation Xrotation Yrotation
                JOINT lThumb2
                {
                  OFFSET 3.37035 -0.52449 3.41376
                  CHANNELS 3 Zrotation Xrotation Yrotation
                  End Site
                  {
                    OFFSET 1.78271 -1.18214 1.43049
                  }
                }
              }
              JOINT lIndex1
              {
                OFFSET 7.75947 0.938293 5.60832
                CHANNELS 3 Zrotation Xrotation Yrotation
                JOINT lIndex2
                {
                  OFFSET 2.54057 -0.884171 1.56538
                  CHANNELS 3 Zrotation Xrotation Yrotation
                  End Site
                  {
                    OFFSET 1.62519 -0.234802 1.16502
                  }
                }
              }
              JOINT lMid1
              {
                OFFSET 8.24714 1.18213 3.41376
                CHANNELS 3 Zrotation Xrotation Yrotation
                JOINT lMid2
                {
                  OFFSET 3.10165 -0.590103 1.0647
                  CHANNELS 3 Zrotation Xrotation Yrotation
                  End Site
                  {
                    OFFSET 2.48547 -0.328903 0.83742
                  }
                }
              }
              JOINT lRing1
              {
                OFFSET 8.82822 0.546677 1.51678
                CHANNELS 3 Zrotation Xrotation Yrotation
                JOINT lRing2
                {
                  OFFSET 2.60934 -0.819778 -0.0198488
                  CHANNELS 3 Zrotation Xrotation Yrotation
                  End Site
                  {
                    OFFSET 2.33842 -0.294052 0.168128
                  }
                }
              }
              JOINT lPinky1
              {
                OFFSET 8.27202 -0.0477905 -0.4584
                CHANNELS 3 Zrotation Xrotation Yrotation
                JOINT lPinky2
                {
                  OFFSET 1.82734 -0.647385 -0.700984
                  CHANNELS 3 Zrotation Xrotation Yrotation
                  End Site
                  {
                    OFFSET 1.69225 -0.51767 -0.607171
                  }
                }
              }
            }
          }
        }
      }
    }
  }
  JOINT rButtock
  {
    OFFSET -8.77824 4.35084 1.2192
    CHANNELS 3 Zrotation Xrotation Yrotation
    JOINT rThigh
    {
      OFFSET 0 -1.70687 -2.19456
      CHANNELS 3 Zrotation Xrotation Yrotation
      JOINT rShin
      {
        OFFSET 0 -36.8199 0.73152
        CHANNELS 3 Zrotation Xrotation Yrotation
        JOINT rFoot
        {
          OFFSET 0.73152 -45.1104 -5.12064
          CHANNELS 3 Zrotation Xrotation Yrotation
          End Site
          {
            OFFSET -1.1221 -3.69964 12.103
          }
        }
      }
    }
  }
  JOINT lButtock
  {
    OFFSET 8.77824 4.35084 1.2192
    CHANNELS 3 Zrotation Xrotation Yrotation
    JOINT lThigh
    {
      OFFSET 0 -1.70687 -2.19456
      CHANNELS 3 Zrotation Xrotation Yrotation
      JOINT lShin
      {
        OFFSET 0 -36.8199 0.73152
        CHANNELS 3 Zrotation Xrotation Yrotation
        JOINT lFoot
        {
          OFFSET -0.73152 -45.1104 -5.12064
          CHANNELS 3 Zrotation Xrotation Yrotation
          End Site
          {
            OFFSET 1.1221 -3.69964 12.103
          }
        }
      }
    }
  }
}
MOTION
Frames:	6
Frame Time:	0.00833333
72.8606 83.8008 97.1449 0.0 0.0 0.0 -2.04814 -0.00112526 -0.0554688 -0.564321 0.00679371 -0.097694 5.50976e-14 7.95139e-16 5.71506e-16 1.64634e-13 9.54166e-15 1.80925e-15 -0.0 0.0 0.0 -0.0 0.0 0.0 2.72342e-14 1.99561e-16 4.96962e-16 5.75354e-13 4.19933e-15 8.74653e-15 9.88387e-12 -2.81459e-12 3.49861e-14 1.13052e-10 3.72781e-12 1.39626e-12 2.66678e-10 1.98173e-12 3.1074e-12 4.60538e-10 3.42228e-12 5.34492e-12 2.66684e-10 1.98308e-12 3.09786e-12 7.73091 5.47488 0.417314 2.66678e-10 1.98109e-12 3.1074e-12 2.90554 0.965183 0.102902 2.66686e-10 1.98159e-12 3.10184e-12 10.2786 0.731801 0.0259123 2.66675e-10 1.98427e-12 3.10104e-12 2.22167 -0.733487 -0.20892 2.71352e-14 1.9432e-16 1.98785e-16 5.73163e-13 3.80797e-15 7.15625e-15 9.87796e-12 3.10303e-12 4.13472e-14 1.13116e-10 -2.2046e-12 1.40581e-12 2.668e-10 1.95446e-12 3.09786e-12 4.60756e-10 3.38411e-12 5.3481e-12 2.66795e-10 1.95644e-12 3.11376e-12 -7.73091 5.47488 -0.417314 2.66801e-10 1.95475e-12 3.10104e-12 -2.90554 0.965183 -0.102902 2.66792e-10 1.95475e-12 3.10025e-12 -10.2786 0.731801 -0.0259123 2.66805e-10 1.95644e-12 3.09786e-12 -2.22167 -0.733487 0.20892 -2.03217e-16 0.0 -3.88251e-19 -1.04894 -1.92716 0.000317486 -0.00908106 -2.07858 -0.0748931 -0.505796 3.9982 0.13939 2.03217e-16 0.0 3.88251e-19 -2.06474 -7.46952 0.204664 -0.00450116 7.96078 -0.117526 0.539453 -0.498693 -0.0508301
68.5681 82.7308 90.7144 -72.42 -83.9566 74.6653 -0.424012 -1.58362 -0.783472 0.149604 -0.702713 -0.360051 -2.47573 2.76949 -1.48337 0.161546 -3.4486 -2.79317 -0.0 0.0 0.0 -0.0 0.0 0.0 9.69571e-14 -2.53347e-12 2.0832e-14 21.4867 5.73329 0.945049 -3.81392 -1.6594 6.0344 0.0218124 -3.27947 -0.458183 -6.53892e-10 3.33991e-10 2.28687e-10 -1.13029e-09 5.82851e-10 3.88537e-10 -6.53885e-10 3.33993e-10 2.28678e-10 7.73091 5.47488 0.417314 -6.53892e-10 3.33991e-10 2.28684e-10 2.90554 0.965183 0.102902 -6.53884e-10 3.33992e-10 2.28681e-10 10.2786 0.731801 0.0259123 -6.53896e-10 3.33994e-10 2.28682e-10 2.22167 -0.733487 -0.20892 9.68791e-14 -2.53347e-12 2.05113e-14 -9.60353 2.51256 -13.7965 -1.71499 15.457 41.606 -0.0228659 3.35583 -0.468714 5.21681e-10 3.03246e-10 -9.22746e-11 9.03602e-10 5.28952e-10 -1.63744e-10 5.21676e-10 3.03248e-10 -9.22624e-11 -7.73091 5.47488 -0.417314 5.21682e-10 3.03247e-10 -9.22743e-11 -2.90554 0.965183 -0.102902 5.21673e-10 3.03248e-10 -9.22716e-11 -10.2786 0.731801 -0.0259123 5.21685e-10 3.0325e-10 -9.22765e-11 -2.22167 -0.733487 0.20892 -2.03217e-16 0.0 -3.88251e-19 1.51538 -3.68804 0.964895 0.00879036 5.56031 0.0782299 -0.716401 -0.632982 -2.08946 2.03217e-16 0.0 3.88251e-19 0.464351 -8.60058 0.426971 -0.0102466 14.6953 -0.225085 0.799676 -5.33212 1.93978
68.6134 82.7167 90.6638 -73.2203 -83.7512 75.6676 1.25241 -3.25482 -1.54966 0.895956 -1.45328 -0.636048 -4.9505 5.69462 -3.06843 -0.0223315 -7.06417 -5.78784 -0.0 0.0 0.0 -0.0 0.0 0.0 1.75389e-13 -5.35724e-12 4.3509e-14 43.9887 11.7788 1.96927 -7.46725 -3.35176 12.4286 -0.0124884 -6.73099 -0.945513 -1.67407e-09 7.04124e-10 4.93191e-10 -2.89335e-09 1.22881e-09 8.38258e-10 -1.67406e-09 7.04125e-10 4.93182e-10 7.73091 5.47488 0.417314 -1.67407e-09 7.04124e-10 4.93184e-10 2.90554 0.965183 0.102902 -1.67407e-09 7.04125e-10 4.93183e-10 10.2786 0.731801 0.0259123 -1.67408e-09 7.04127e-10 4.93187e-10 2.22167 -0.733487 -0.20892 1.75335e-13 -5.35725e-12 4.31673e-14 -18.4882 4.68735 -28.4533 -17.5958 5.41571 83.9031 0.0130889 6.90966 -0.970569 8.2009e-10 6.5081e-10 -2.04921e-10 1.42192e-09 1.13515e-09 -3.63324e-10 8.20085e-10 6.50811e-10 -2.04913e-10 -7.73091 5.47488 -0.417314 8.20091e-10 6.5081e-10 -2.04924e-10 -2.90554 0.965183 -0.102902 8.20083e-10 6.50813e-10 -2.04917e-10 -10.2786 0.731801 -0.0259123 8.20094e-10 6.50815e-10 -2.04925e-10 -2.22167 -0.733487 0.20892 -2.03217e-16 0.0 -3.88251e-19 4.29927 -5.54354 1.98561 -0.0176224 13.6291 0.246233 -1.33434 -5.50975 -4.48094 2.03217e-16 0.0 3.88251e-19 3.15528 -9.80339 0.658547 0.013543 21.82 -0.349898 1.44289 -10.426 4.0825
68.627 82.7145 90.5761 -77.5213 -83.6452 80.0427 2.70327 -4.74542 -2.24628 1.55795 -2.12152 -0.885289 -6.9936 8.28609 -4.49189 -0.533943 -10.2467 -8.50088 -0.0 0.0 0.0 -0.0 0.0 0.0 2.36403e-13 -7.6008e-12 6.15021e-14 63.8704 17.1807 2.95283 -10.4095 -4.75775 18.1603 -0.0938963 -9.83587 -1.39277 -2.49503e-09 9.9801e-10 6.79847e-10 -4.31195e-09 1.74171e-09 1.15492e-09 -2.49502e-09 9.98012e-10 6.79838e-10 7.73091 5.47488 0.417314 -2.49503e-09 9.98011e-10 6.79837e-10 2.90554 0.965183 0.102902 -2.49503e-09 9.98012e-10 6.79838e-10 10.2786 0.731801 0.0259123 -2.49504e-09 9.98015e-10 6.79843e-10 2.22167 -0.733487 -0.20892 2.36367e-13 -7.6008e-12 6.11364e-14 -25.5157 5.81861 -41.6105 -22.6159 -25.3732 105.316 0.0982921 10.0648 -1.42567 1.03144e-09 9.05831e-10 -2.8302e-10 1.78929e-09 1.58009e-09 -5.01928e-10 1.03144e-09 9.05831e-10 -2.83015e-10 -7.73091 5.47488 -0.417314 1.03144e-09 9.05832e-10 -2.83025e-10 -2.90554 0.965183 -0.102902 1.03144e-09 9.05836e-10 -2.83015e-10 -10.2786 0.731801 -0.0259123 1.03145e-09 9.05837e-10 -2.83025e-10 -2.22167 -0.733487 0.20892 -2.03217e-16 0.0 -3.88251e-19 6.82309 -7.20218 2.91104 -0.0840419 20.8376 0.410097 -2.22722 -9.83147 -6.64411 2.03217e-16 0.0 3.88251e-19 5.54934 -10.8621 0.876358 0.0645856 28.1637 -0.476837 2.35573 -14.9269 6.10248
68.6509 82.7076 90.5372 -81.9036 -83.6635 84.5338 3.67421 -5.78741 -2.76269 2.02266 -2.58413 -1.06715 -8.26812 10.0652 -5.47095 -1.13912 -12.4422 -10.3939 -0.0 0.0 0.0 -0.0 0.0 0.0 2.53872e-13 -8.39382e-12 6.77856e-14 77.6164 20.9911 3.72602 -12.2945 -5.65738 22.1815 -0.182281 -12.0765 -1.72309 -2.81793e-09 1.10128e-09 6.71883e-10 -4.86938e-09 1.92196e-09 1.13894e-09 -2.81792e-09 1.10128e-09 6.71873e-10 7.73091 5.47488 0.417314 -2.81793e-09 1.10128e-09 6.7187e-10 2.90554 0.965183 0.102902 -2.81793e-09 1.10128e-09 6.71873e-10 10.2786 0.731801 0.0259123 -2.81794e-09 1.10129e-09 6.71879e-10 2.22167 -0.733487 -0.20892 2.53841e-13 -8.39382e-12 6.7388e-14 -30.0887 5.98864 -50.8123 -21.0339 -52.5058 111.641 0.1869 12.2257 -1.74504 1.02516e-09 9.29495e-10 -2.74749e-10 1.7793e-09 1.62185e-09 -4.88088e-10 1.02515e-09 9.29496e-10 -2.74746e-10 -7.73091 5.47488 -0.417314 1.02516e-09 9.29497e-10 -2.74755e-10 -2.90554 0.965183 -0.102902 1.02515e-09 9.29501e-10 -2.74744e-10 -10.2786 0.731801 -0.0259123 1.02516e-09 9.29502e-10 -2.74755e-10 -2.22167 -0.733487 0.20892 -2.03217e-16 0.0 -3.88251e-19 8.57184 -8.37535 3.58384 -0.15797 25.8961 0.537566 -3.02486 -12.8334 -8.12387 2.03217e-16 0.0 3.88251e-19 7.18292 -11.5608 1.05622 0.119489 32.5552 -0.577833 3.21031 -18.0116 7.64646
68.6532 82.7074 90.563 -84.977 -83.8003 87.6104 4.01163 -6.21598 -3.02296 2.21047 -2.75861 -1.15486 -8.58601 10.725 -5.80378 -1.56982 -13.3162 -11.0718 -0.0 0.0 0.0 -0.0 0.0 0.0 1.99522e-13 -6.84563e-12 5.26682e-14 82.984 22.5829 4.1332 -13.0025 -5.99188 23.7733 -0.230178 -13.1285 -1.88054 -2.33661e-09 9.13766e-10 3.11838e-10 -4.03596e-09 1.59448e-09 5.20506e-10 -2.3366e-09 9.13768e-10 3.11826e-10 7.73091 5.47488 0.417314 -2.33661e-09 9.13767e-10 3.11825e-10 2.90554 0.965183 0.102902 -2.33661e-09 9.13768e-10 3.11829e-10 10.2786 0.731801 0.0259123 -2.33662e-09 9.13771e-10 3.11836e-10 2.22167 -0.733487 -0.20892 1.99477e-13 -6.84563e-12 5.22175e-14 -31.876 5.87302 -54.4556 -20.0796 -63.7226 112.314 0.225487 12.9923 -1.86033 6.33735e-10 5.46541e-10 -1.09002e-10 1.1018e-09 9.55175e-10 -1.96533e-10 6.33732e-10 5.46544e-10 -1.08998e-10 -7.73091 5.47488 -0.417314 6.33737e-10 5.46545e-10 -1.09007e-10 -2.90554 0.965183 -0.102902 6.33729e-10 5.46549e-10 -1.08997e-10 -10.2786 0.731801 -0.0259123 6.33736e-10 5.46549e-10 -1.09007e-10 -2.22167 -0.733487 0.20892 -2.03217e-16 0.0 -3.88251e-19 9.17946 -8.88235 3.88329 -0.194632 27.9464 0.591676 -3.32449 -14.0437 -8.53346 2.03217e-16 0.0 3.88251e-19 7.74282 -11.759 1.17049 0.144725 34.2094 -0.620622 3.64324 -19.1476 8.42872
